<?xml version="1.0" encoding="utf-8"?>
<svg viewBox="0 0 494 159" xmlns="http://www.w3.org/2000/svg">
  <g transform="matrix(1, 0, 0, 1, -0.535, -2.098003)">
    <circle style="fill: #00a0dd" cx="22.959" cy="82.112" r="21.424"></circle>
    <rect x="20.567" y="100.052" width="4.325" height="61.046" style="fill: #00a0dd"></rect>
  </g>
  <g transform="matrix(1, 0, 0, 1, 0, -1.668)">
    <path d="M 128.911 73.498 L 72.761 73.498 L 72.761 58.628 L 77.301 58.628 L 77.301 17.808 L 72.761 17.808 L 72.761 2.938 L 111.041 2.938 L 111.041 17.808 L 102.701 17.808 L 102.701 58.628 L 110.861 58.628 L 110.861 50.278 L 128.911 50.278 L 128.911 73.498 Z M 166.092 74.768 C 155.025 74.768 146.482 71.865 140.462 66.058 C 134.448 60.258 131.442 50.978 131.442 38.218 C 131.442 25.458 134.448 16.175 140.462 10.368 C 146.482 4.568 155.025 1.668 166.092 1.668 C 177.158 1.668 185.698 4.568 191.712 10.368 C 197.725 16.175 200.732 25.458 200.732 38.218 C 200.732 50.978 197.725 60.258 191.712 66.058 C 185.698 71.865 177.158 74.768 166.092 74.768 Z M 166.092 58.628 C 168.145 58.628 169.685 58.081 170.712 56.988 C 171.738 55.901 172.252 54.208 172.252 51.908 L 172.252 24.518 C 172.252 22.225 171.738 20.531 170.712 19.438 C 169.685 18.351 168.145 17.808 166.092 17.808 C 164.032 17.808 162.488 18.351 161.462 19.438 C 160.435 20.531 159.922 22.225 159.922 24.518 L 159.922 51.908 C 159.922 54.268 160.435 55.978 161.462 57.038 C 162.488 58.098 164.032 58.628 166.092 58.628 Z M 240.094 17.808 L 240.094 2.938 L 270.384 2.938 L 270.384 17.808 L 266.754 17.808 L 250.524 73.498 L 221.134 73.498 L 204.904 17.808 L 201.274 17.808 L 201.274 2.938 L 236.104 2.938 L 236.104 17.808 L 231.384 17.808 L 237.644 48.188 L 238.554 48.188 L 244.804 17.808 L 240.094 17.808 Z M 334.506 73.498 L 273.276 73.498 L 273.276 58.628 L 277.816 58.628 L 277.816 17.808 L 273.276 17.808 L 273.276 2.938 L 334.506 2.938 L 334.506 30.328 L 314.186 30.328 L 314.186 17.808 L 303.216 17.808 L 303.216 32.138 L 311.196 32.138 L 311.196 42.478 L 303.216 42.478 L 303.216 58.628 L 314.186 58.628 L 314.186 44.288 L 334.506 44.288 L 334.506 73.498 Z M 394.088 73.498 L 337.938 73.498 L 337.938 58.628 L 342.478 58.628 L 342.478 17.808 L 337.938 17.808 L 337.938 2.938 L 376.218 2.938 L 376.218 17.808 L 367.878 17.808 L 367.878 58.628 L 376.038 58.628 L 376.038 50.278 L 394.088 50.278 L 394.088 73.498 Z M 422.287 17.808 L 422.287 2.938 L 450.127 2.938 L 450.127 17.808 L 446.507 17.808 L 428.997 49.188 L 428.997 58.628 L 433.537 58.628 L 433.537 73.498 L 399.067 73.498 L 399.067 58.628 L 403.607 58.628 L 403.607 49.188 L 385.557 17.808 L 381.927 17.808 L 381.927 2.938 L 417.027 2.938 L 417.027 17.808 L 413.847 17.808 L 419.207 31.868 L 420.107 31.868 L 425.457 17.808 L 422.287 17.808 Z" style="fill: #333; white-space: pre"></path>
    <path d="M 101.551 159.446 C 95.504 159.446 90.461 158.119 86.421 155.466 C 82.374 152.819 79.338 149.189 77.311 144.576 C 75.278 139.969 74.261 134.739 74.261 128.886 L 74.261 128.016 C 74.261 122.109 75.324 116.859 77.451 112.266 C 79.578 107.666 82.628 104.043 86.601 101.396 C 90.574 98.743 95.324 97.416 100.851 97.416 C 104.738 97.416 108.298 98.023 111.531 99.236 C 114.758 100.456 117.434 102.003 119.561 103.876 L 119.561 116.876 L 113.061 116.876 L 112.191 107.356 C 111.311 106.669 110.298 106.089 109.151 105.616 C 108.004 105.149 106.734 104.789 105.341 104.536 C 103.948 104.289 102.434 104.166 100.801 104.166 C 96.854 104.166 93.514 105.183 90.781 107.216 C 88.048 109.243 85.978 112.036 84.571 115.596 C 83.164 119.156 82.461 123.269 82.461 127.936 L 82.461 128.886 C 82.461 133.939 83.214 138.253 84.721 141.826 C 86.221 145.399 88.414 148.126 91.301 150.006 C 94.188 151.879 97.701 152.816 101.841 152.816 C 103.774 152.816 105.664 152.583 107.511 152.116 C 109.364 151.649 110.898 151.043 112.111 150.296 L 113.021 141.886 L 119.401 141.886 L 119.401 154.976 C 117.134 156.383 114.428 157.479 111.281 158.266 C 108.134 159.053 104.891 159.446 101.551 159.446 Z M 152.314 159.446 C 148.42 159.446 144.927 158.699 141.834 157.206 C 138.747 155.719 136.12 153.616 133.954 150.896 C 131.787 148.176 130.13 144.953 128.984 141.226 C 127.837 137.499 127.264 133.386 127.264 128.886 L 127.264 128.016 C 127.264 123.543 127.837 119.436 128.984 115.696 C 130.13 111.956 131.787 108.719 133.954 105.986 C 136.12 103.253 138.747 101.143 141.834 99.656 C 144.927 98.163 148.42 97.416 152.314 97.416 C 156.427 97.416 160.044 98.163 163.164 99.656 C 166.284 101.143 168.897 103.253 171.004 105.986 C 173.117 108.719 174.714 111.956 175.794 115.696 C 176.867 119.436 177.404 123.543 177.404 128.016 L 177.404 128.886 C 177.404 133.386 176.867 137.499 175.794 141.226 C 174.714 144.953 173.117 148.176 171.004 150.896 C 168.897 153.616 166.284 155.719 163.164 157.206 C 160.044 158.699 156.427 159.446 152.314 159.446 Z M 152.314 152.656 C 156.314 152.656 159.55 151.663 162.024 149.676 C 164.49 147.689 166.304 144.906 167.464 141.326 C 168.624 137.753 169.204 133.606 169.204 128.886 L 169.204 127.936 C 169.204 123.243 168.617 119.123 167.444 115.576 C 166.27 112.029 164.444 109.256 161.964 107.256 C 159.477 105.256 156.26 104.256 152.314 104.256 C 148.694 104.256 145.63 105.263 143.124 107.276 C 140.61 109.289 138.704 112.069 137.404 115.616 C 136.11 119.163 135.464 123.269 135.464 127.936 L 135.464 128.886 C 135.464 133.579 136.11 137.713 137.404 141.286 C 138.704 144.866 140.61 147.656 143.124 149.656 C 145.63 151.656 148.694 152.656 152.314 152.656 Z M 205.852 158.576 L 184.192 158.576 L 184.192 153.356 L 190.942 152.196 L 190.942 104.706 L 184.192 103.546 L 184.192 98.286 L 190.942 98.286 L 201.832 98.286 L 221.252 144.046 L 221.502 144.046 L 240.302 98.286 L 258.472 98.286 L 258.472 103.546 L 251.732 104.706 L 251.732 152.196 L 258.472 153.356 L 258.472 158.576 L 236.822 158.576 L 236.822 153.356 L 243.942 152.196 L 243.942 134.726 L 243.942 109.426 L 243.732 109.386 L 224.152 156.426 L 218.722 156.426 L 198.482 109.466 L 198.272 109.506 L 198.562 134.726 L 198.562 152.196 L 205.852 153.356 L 205.852 158.576 Z M 287.377 158.576 L 265.717 158.576 L 265.717 153.356 L 272.467 152.196 L 272.467 104.706 L 265.717 103.546 L 265.717 98.286 L 272.467 98.286 L 293.417 98.286 C 297.723 98.286 301.397 99.039 304.437 100.546 C 307.47 102.053 309.787 104.156 311.387 106.856 C 312.993 109.563 313.797 112.726 313.797 116.346 C 313.797 119.986 312.993 123.159 311.387 125.866 C 309.787 128.573 307.47 130.669 304.437 132.156 C 301.397 133.649 297.723 134.396 293.417 134.396 L 280.627 134.396 L 280.627 152.196 L 287.377 153.356 L 287.377 158.576 Z M 280.627 104.706 L 280.627 128.016 L 293.417 128.016 C 297.503 128.016 300.563 126.919 302.597 124.726 C 304.623 122.533 305.637 119.766 305.637 116.426 C 305.637 113.086 304.623 110.296 302.597 108.056 C 300.563 105.823 297.503 104.706 293.417 104.706 L 280.627 104.706 Z M 327.12 158.576 L 309.86 158.576 L 309.86 153.356 L 314.33 152.736 L 335.41 98.286 L 342.4 98.286 L 363.11 152.736 L 367.54 153.356 L 367.54 158.576 L 350.23 158.576 L 350.23 153.356 L 354.78 152.576 L 350.81 141.476 L 326.67 141.476 L 322.57 152.576 L 327.12 153.356 L 327.12 158.576 Z M 338.22 110.126 L 329.2 134.646 L 348.32 134.646 L 339.46 110.126 L 338.97 108.766 L 338.72 108.766 L 338.22 110.126 Z M 395.524 158.576 L 373.874 158.576 L 373.874 153.356 L 380.624 152.196 L 380.624 104.706 L 373.874 103.546 L 373.874 98.286 L 380.624 98.286 L 388.864 98.286 L 418.424 145.286 L 418.674 145.206 L 418.674 104.706 L 411.264 103.546 L 411.264 98.286 L 426.164 98.286 L 432.914 98.286 L 432.914 103.546 L 426.164 104.706 L 426.164 158.576 L 418.714 158.576 L 388.364 111.336 L 388.114 111.416 L 388.114 152.196 L 395.524 153.356 L 395.524 158.576 Z M 476.262 158.576 L 454.652 158.576 L 454.652 153.356 L 461.402 152.196 L 461.402 136.626 L 442.852 104.336 L 437.882 103.546 L 437.882 98.286 L 458.672 98.286 L 458.672 103.546 L 451.792 104.336 L 464.592 128.016 L 465.462 129.636 L 465.502 129.546 L 466.332 128.016 L 479.742 104.336 L 472.622 103.546 L 472.622 98.286 L 492.992 98.286 L 492.992 103.546 L 487.732 104.336 L 469.522 136.006 L 469.522 152.196 L 476.262 153.356 L 476.262 158.576 Z" style="fill: #333; white-space: pre"></path>
  </g>
</svg>