<svg viewBox="0 0 494 159" xmlns="http://www.w3.org/2000/svg"><g transform="translate(-.535 -2.098)"><circle style="fill:#00a0dd" cx="22.959" cy="82.112" r="21.424"/><path style="fill:#00a0dd" d="M20.567 100.052h4.325v61.046h-4.325z"/></g><path d="M128.911 73.498h-56.15v-14.87h4.54v-40.82h-4.54V2.938h38.28v14.87h-8.34v40.82h8.16v-8.35h18.05v23.22Zm37.181 1.27c-11.067 0-19.61-2.903-25.63-8.71-6.014-5.8-9.02-15.08-9.02-27.84s3.006-22.043 9.02-27.85c6.02-5.8 14.563-8.7 25.63-8.7 11.066 0 19.606 2.9 25.62 8.7 6.013 5.807 9.02 15.09 9.02 27.85 0 12.76-3.007 22.04-9.02 27.84-6.014 5.807-14.554 8.71-25.62 8.71Zm0-16.14c2.053 0 3.593-.547 4.62-1.64 1.026-1.087 1.54-2.78 1.54-5.08v-27.39c0-2.293-.514-3.987-1.54-5.08-1.027-1.087-2.567-1.63-4.62-1.63-2.06 0-3.604.543-4.63 1.63-1.027 1.093-1.54 2.787-1.54 5.08v27.39c0 2.36.513 4.07 1.54 5.13 1.026 1.06 2.57 1.59 4.63 1.59Zm74.002-40.82V2.938h30.29v14.87h-3.63l-16.23 55.69h-29.39l-16.23-55.69h-3.63V2.938h34.83v14.87h-4.72l6.26 30.38h.91l6.25-30.38h-4.71Zm94.412 55.69h-61.23v-14.87h4.54v-40.82h-4.54V2.938h61.23v27.39h-20.32v-12.52h-10.97v14.33h7.98v10.34h-7.98v16.15h10.97v-14.34h20.32v29.21Zm59.582 0h-56.15v-14.87h4.54v-40.82h-4.54V2.938h38.28v14.87h-8.34v40.82h8.16v-8.35h18.05v23.22Zm28.199-55.69V2.938h27.84v14.87h-3.62l-17.51 31.38v9.44h4.54v14.87h-34.47v-14.87h4.54v-9.44l-18.05-31.38h-3.63V2.938h35.1v14.87h-3.18l5.36 14.06h.9l5.35-14.06h-3.17ZM101.551 159.446c-6.047 0-11.09-1.327-15.13-3.98-4.047-2.647-7.083-6.277-9.11-10.89-2.033-4.607-3.05-9.837-3.05-15.69v-.87c0-5.907 1.063-11.157 3.19-15.75 2.127-4.6 5.177-8.223 9.15-10.87 3.973-2.653 8.723-3.98 14.25-3.98 3.887 0 7.447.607 10.68 1.82 3.227 1.22 5.903 2.767 8.03 4.64v13h-6.5l-.87-9.52a12.897 12.897 0 0 0-3.04-1.74c-1.147-.467-2.417-.827-3.81-1.08-1.393-.247-2.907-.37-4.54-.37-3.947 0-7.287 1.017-10.02 3.05-2.733 2.027-4.803 4.82-6.21 8.38-1.407 3.56-2.11 7.673-2.11 12.34v.95c0 5.053.753 9.367 2.26 12.94 1.5 3.573 3.693 6.3 6.58 8.18 2.887 1.873 6.4 2.81 10.54 2.81a23.04 23.04 0 0 0 5.67-.7c1.853-.467 3.387-1.073 4.6-1.82l.91-8.41h6.38v13.09c-2.267 1.407-4.973 2.503-8.12 3.29a39.951 39.951 0 0 1-9.73 1.18Zm50.763 0c-3.894 0-7.387-.747-10.48-2.24-3.087-1.487-5.714-3.59-7.88-6.31-2.167-2.72-3.824-5.943-4.97-9.67-1.147-3.727-1.72-7.84-1.72-12.34v-.87c0-4.473.573-8.58 1.72-12.32 1.146-3.74 2.803-6.977 4.97-9.71 2.166-2.733 4.793-4.843 7.88-6.33 3.093-1.493 6.586-2.24 10.48-2.24 4.113 0 7.73.747 10.85 2.24a21.377 21.377 0 0 1 7.84 6.33c2.113 2.733 3.71 5.97 4.79 9.71 1.073 3.74 1.61 7.847 1.61 12.32v.87c0 4.5-.537 8.613-1.61 12.34-1.08 3.727-2.677 6.95-4.79 9.67a21.457 21.457 0 0 1-7.84 6.31c-3.12 1.493-6.737 2.24-10.85 2.24Zm0-6.79c4 0 7.236-.993 9.71-2.98 2.466-1.987 4.28-4.77 5.44-8.35 1.16-3.573 1.74-7.72 1.74-12.44v-.95c0-4.693-.587-8.813-1.76-12.36-1.174-3.547-3-6.32-5.48-8.32-2.487-2-5.704-3-9.65-3-3.62 0-6.684 1.007-9.19 3.02-2.514 2.013-4.42 4.793-5.72 8.34-1.294 3.547-1.94 7.653-1.94 12.32v.95c0 4.693.646 8.827 1.94 12.4 1.3 3.58 3.206 6.37 5.72 8.37 2.506 2 5.57 3 9.19 3Zm53.538 5.92h-21.66v-5.22l6.75-1.16v-47.49l-6.75-1.16v-5.26h17.64l19.42 45.76h.25l18.8-45.76h18.17v5.26l-6.74 1.16v47.49l6.74 1.16v5.22h-21.65v-5.22l7.12-1.16V109.426l-.21-.04-19.58 47.04h-5.43l-20.24-46.96-.21.04.29 25.22v17.47l7.29 1.16v5.22Zm81.525 0h-21.66v-5.22l6.75-1.16v-47.49l-6.75-1.16v-5.26h27.7c4.306 0 7.98.753 11.02 2.26 3.033 1.507 5.35 3.61 6.95 6.31 1.606 2.707 2.41 5.87 2.41 9.49 0 3.64-.804 6.813-2.41 9.52-1.6 2.707-3.917 4.803-6.95 6.29-3.04 1.493-6.714 2.24-11.02 2.24h-12.79v17.8l6.75 1.16v5.22Zm-6.75-53.87v23.31h12.79c4.086 0 7.146-1.097 9.18-3.29 2.026-2.193 3.04-4.96 3.04-8.3 0-3.34-1.014-6.13-3.04-8.37-2.034-2.233-5.094-3.35-9.18-3.35h-12.79Zm46.493 53.87h-17.26v-5.22l4.47-.62 21.08-54.45h6.99l20.71 54.45 4.43.62v5.22h-17.31v-5.22l4.55-.78-3.97-11.1h-24.14l-4.1 11.1 4.55.78v5.22Zm11.1-48.45-9.02 24.52h19.12l-8.86-24.52-.49-1.36h-.25l-.5 1.36Zm57.304 48.45h-21.65v-5.22l6.75-1.16v-47.49l-6.75-1.16v-5.26h14.99l29.56 47 .25-.08v-40.5l-7.41-1.16v-5.26h21.65v5.26l-6.75 1.16v53.87h-7.45l-30.35-47.24-.25.08v40.78l7.41 1.16v5.22Zm80.738 0h-21.61v-5.22l6.75-1.16v-15.57l-18.55-32.29-4.97-.79v-5.26h20.79v5.26l-6.88.79 12.8 23.68.87 1.62.04-.09.83-1.53 13.41-23.68-7.12-.79v-5.26h20.37v5.26l-5.26.79-18.21 31.67v16.19l6.74 1.16v5.22Z" style="fill:#333;white-space:pre" transform="translate(0 -1.668)"/></svg>